# xmcd
#
# Track frame offsets: 
#        150
#        14550
#        28577
#        49070
#        56132
#        70810
#
# Disc length: 1387 seconds
#
# Revision: 0
# Processed by: cddbd v1.5.2PL0 Copyright (c) Steve Scherf et al.
# Submitted via: ExactAudioCopy v0.95b4
#
DISCID=4f056906
DTITLE=Hètten Dès - PowerCuntry
DYEAR=2003
DGENRE=PowerCountry
TTITLE0=Nebraska
TTITLE1=Love Song
TTITLE2=The Devil In Miss Jones
TTITLE3=Tonight Will Be The Last Night
TTITLE4=Ace Of Spades
TTITLE5=Highstreet Confidential and Dick In Dixie (hidden track)
EXTD=
EXTT0=
EXTT1=
EXTT2=
EXTT3=
EXTT4=
EXTT5=
PLAYORDER=
